<svg width="70" height="70" viewBox="0 0 70 70" fill="none" xmlns="http://www.w3.org/2000/svg">
<path d="M28.3893 29.064C30.7173 29.064 32.5413 29.748 33.8613 31.116C35.2053 32.484 35.8773 34.452 35.8773 37.02V48H34.0773V37.164C34.0773 35.052 33.5613 33.444 32.5293 32.34C31.4973 31.236 30.0573 30.684 28.2093 30.684C26.0973 30.684 24.4173 31.344 23.1693 32.664C21.9453 33.984 21.3333 35.76 21.3333 37.992V48H19.5333V37.164C19.5333 35.052 19.0173 33.444 17.9853 32.34C16.9533 31.236 15.5133 30.684 13.6653 30.684C11.5533 30.684 9.87334 31.344 8.62534 32.664C7.40134 33.984 6.78934 35.76 6.78934 37.992V48H4.98934V29.208H6.71734V33.24C7.34134 31.92 8.26534 30.9 9.48934 30.18C10.7373 29.436 12.2133 29.064 13.9173 29.064C15.6213 29.064 17.0613 29.448 18.2373 30.216C19.4373 30.984 20.2893 32.112 20.7933 33.6C21.4173 32.208 22.3893 31.104 23.7093 30.288C25.0533 29.472 26.6133 29.064 28.3893 29.064ZM60.0488 21.288V48H58.2848V43.572C57.5408 45.036 56.4968 46.164 55.1528 46.956C53.8088 47.748 52.2848 48.144 50.5808 48.144C48.8288 48.144 47.2448 47.736 45.8288 46.92C44.4128 46.104 43.2968 44.976 42.4808 43.536C41.6888 42.096 41.2928 40.452 41.2928 38.604C41.2928 36.756 41.6888 35.112 42.4808 33.672C43.2968 32.208 44.4128 31.08 45.8288 30.288C47.2448 29.472 48.8288 29.064 50.5808 29.064C52.2608 29.064 53.7608 29.46 55.0808 30.252C56.4248 31.044 57.4808 32.148 58.2488 33.564V21.288H60.0488ZM50.6888 46.524C52.1288 46.524 53.4128 46.188 54.5408 45.516C55.6928 44.844 56.5928 43.908 57.2408 42.708C57.9128 41.508 58.2488 40.14 58.2488 38.604C58.2488 37.068 57.9128 35.7 57.2408 34.5C56.5928 33.3 55.6928 32.364 54.5408 31.692C53.4128 31.02 52.1288 30.684 50.6888 30.684C49.2488 30.684 47.9528 31.02 46.8008 31.692C45.6728 32.364 44.7728 33.3 44.1008 34.5C43.4528 35.7 43.1288 37.068 43.1288 38.604C43.1288 40.14 43.4528 41.508 44.1008 42.708C44.7728 43.908 45.6728 44.844 46.8008 45.516C47.9528 46.188 49.2488 46.524 50.6888 46.524ZM66.3218 48.1C66.0384 48.1 65.7884 48 65.5718 47.8C65.3718 47.5833 65.2718 47.325 65.2718 47.025C65.2718 46.725 65.3718 46.475 65.5718 46.275C65.7884 46.075 66.0384 45.975 66.3218 45.975C66.6051 45.975 66.8468 46.075 67.0468 46.275C67.2634 46.475 67.3718 46.725 67.3718 47.025C67.3718 47.325 67.2634 47.5833 67.0468 47.8C66.8468 48 66.6051 48.1 66.3218 48.1Z" fill="#333333"/>
</svg>
